<?xml version="1.0" encoding="UTF-8"?>
<svg width="24px" height="22px" viewBox="0 0 24 22" version="1.1" xmlns="http://www.w3.org/2000/svg" xmlns:xlink="http://www.w3.org/1999/xlink">
    <!-- Generator: Sketch 48.2 (47327) - http://www.bohemiancoding.com/sketch -->
    <title>Artboard</title>
    <desc>Created with Sketch.</desc>
    <defs></defs>
    <g id="Page-1" stroke="none" stroke-width="1" fill="none" fill-rule="evenodd">
        <g id="Artboard" fill="#848484" fill-rule="nonzero">
            <g id="cleaning" transform="translate(4.000000, -3.000000)">
                <path d="M16.5806246,24.0650089 L13.9118668,24.0650089 L6.05021333,0.287924036 C5.9775119,0.0679491701 5.74028153,-0.051462561 5.5202758,0.0213590193 C5.30032601,0.0940687384 5.18103973,0.331326145 5.25368524,0.551301011 L9.60469829,13.7106975 L0.41943135,13.7104178 C0.187737472,13.7104178 0,13.8982326 0,14.129897 L0,20.553577 C0,20.6789173 0.0560919525,20.7977138 0.152840784,20.8774149 C0.228562124,20.9397774 0.322962139,20.9730561 0.41943135,20.9730561 C0.446219032,20.9730561 0.473230411,20.9704833 0.499962169,20.9652258 L0.776003921,20.9111969 L1.20253764,24.6283415 C1.22686466,24.8401505 1.40610166,25 1.61922871,25 L8.51870664,25 C8.73188961,25 8.91112661,24.8401505 8.9353977,24.6283415 L9.24851719,21.9004965 C9.25092193,21.9000491 9.25338259,21.8998813 9.25578733,21.8993779 C10.2604093,21.6969093 10.8675781,21.2379432 11.0605165,20.5353436 C11.2922663,19.6916312 10.8651175,18.5598205 9.79165282,17.1689955 L10.0381666,15.0215419 L13.0282647,24.064953 L10.4451828,24.064953 C10.2134889,24.064953 10.0257514,24.2527678 10.0257514,24.4844322 C10.0257514,24.7160965 10.2134889,24.9039113 10.4451828,24.9039113 L16.5805687,24.9039113 C16.8122625,24.9039113 17,24.7160965 17,24.4844322 C17,24.2527678 16.8123185,24.0650089 16.5806246,24.0650089 Z M0.8388627,20.0441055 L0.8388627,14.5496558 L4.40984529,14.5496558 L4.40984529,19.3453651 L0.8388627,20.0441055 Z M8.1446298,24.1610417 L1.99324962,24.1610417 L1.60178036,20.7496135 L4.90975153,20.1023292 C5.10660465,20.063849 5.24865206,19.8913033 5.24865206,19.6906804 L5.24865206,14.5496558 L9.24801387,14.5496558 L9.04931526,16.2804827 C8.40255212,15.5590904 7.84867904,15.0563866 7.81915107,15.0296518 C7.64746384,14.8743886 7.38221545,14.8877001 7.22680216,15.0595187 C7.07150071,15.2313374 7.08481066,15.4965601 7.25655382,15.6519911 C7.76904301,16.1156553 8.38029429,16.748174 8.91901192,17.4153136 L8.1446298,24.1610417 Z M10.2516292,20.3133552 C10.1634927,20.634061 9.86038364,20.8689693 9.35029919,21.0140532 L9.64803953,18.4201619 C10.1087429,19.1463083 10.3832188,19.8347016 10.2516292,20.3133552 Z" id="Shape"></path>
                <path d="M1.99997474,13 C2.55136268,13 3,12.5514019 3,12 C3,11.4485981 2.55136268,11 1.99997474,11 C1.4485868,11 1,11.4485981 1,12 C1,12.5514019 1.4485868,13 1.99997474,13 Z M1.99997474,11.7577166 C2.13359097,11.7577166 2.24225203,11.8663804 2.24225203,11.9999495 C2.24225203,12.1335186 2.13359097,12.2421824 1.99997474,12.2421824 C1.86640903,12.2421824 1.75774797,12.1335186 1.75774797,11.9999495 C1.75774797,11.8663804 1.86640903,11.7577166 1.99997474,11.7577166 Z" id="Shape"></path>
                <path d="M5.4999715,12 C6.32713317,12 7,11.327089 7,10.5 C7,9.67291105 6.32707617,9 5.4999715,9 C4.67286683,9 4,9.67291105 4,10.5 C4,11.327089 4.67286683,12 5.4999715,12 Z M5.4999715,9.85490367 C5.8556419,9.85490367 6.14502308,10.1442794 6.14502308,10.499943 C6.14502308,10.8556066 5.8556419,11.1449823 5.4999715,11.1449823 C5.1443011,11.1449823 4.85497692,10.8556066 4.85497692,10.499943 C4.85497692,10.1442794 5.1443011,9.85490367 5.4999715,9.85490367 Z" id="Shape"></path>
                <path d="M3.03755345,9.69091821 C3.11879478,9.88316515 3.31442765,10.0099947 3.52400095,9.99938109 C3.73284053,9.98876745 3.9168675,9.84464901 3.97796525,9.64472555 C4.11109965,9.20889909 3.61317965,8.83228201 3.22991799,9.0775971 C3.02934927,9.20596198 2.94483961,9.47036826 3.03755345,9.69091821 C3.05029326,9.7209568 3.02494703,9.66081288 3.03755345,9.69091821 Z" id="Shape"></path>
            </g>
        </g>
    </g>
</svg>