<svg xmlns="http://www.w3.org/2000/svg" width="15" height="13" viewBox="0 0 15 13">
  <g fill="#0F69D0">
    <path d="M14.95289,8.43022404 L13.3036189,5.71466701 L13.3036189,0.719275703 L12.6322634,0.0210659847 L2.35070332,0.0210659847 L1.67934783,0.719275703 L1.67934783,5.71462711 L0.0300767263,8.43022404 L14.95289,8.43022404 Z M11.9609079,1.41748542 L11.9609079,4.90302813 C11.0957033,4.67026496 9.60103581,4.38324092 7.49148338,4.38324092 C5.38193095,4.38324092 3.88726343,4.67026496 3.02205882,4.90302813 L3.02205882,1.41748542 L11.9609079,1.41748542 Z"/>
    <polygon points="0 9.289 0 10.686 1.564 10.686 1.564 12.609 2.907 12.609 2.907 10.686 12.076 10.686 12.076 12.609 13.419 12.609 13.419 10.686 14.983 10.686 14.983 9.289"/>
    <path d="M6.94661125 3.65674373L6.94661125 2.84326957C6.94661125 2.36042762 6.27280051 1.96887161 5.44162404 1.96887161 4.61044757 1.96887161 3.93667519 2.36042762 3.93667519 2.84326957L3.93667519 4.06429872C3.93667519 4.06429872 4.82439898 3.83185473 5.43456522 3.7717688 5.98388747 3.71762762 6.94661125 3.65674373 6.94661125 3.65674373zM11.0463299 4.06429872L11.0463299 2.84326957C11.0463299 2.36042762 10.3725192 1.96887161 9.54134271 1.96887161 8.71016624 1.96887161 8.0363555 2.36042762 8.0363555 2.84326957L8.0363555 3.65674373C8.0363555 3.65674373 8.99911765 3.71758772 9.5484399 3.7717688 10.1586445 3.83185473 11.0463299 4.06429872 11.0463299 4.06429872z"/>
  </g>
</svg>
