<svg xmlns="http://www.w3.org/2000/svg" width="60" height="34" viewBox="0 0 60 34">
  <path d="M47.2132093,8.18464086 C45.4694249,8.18464086 43.8064018,8.53930724 42.2903423,9.18014697 L38.6651497,2.07974815 L43.7319586,2.07974815 C44.2816298,2.07974815 44.7288385,2.53119214 44.7288385,3.08606895 C44.7288385,3.64094576 44.2816298,4.09238975 43.7319586,4.09238975 L42.6508837,4.09238975 C42.0818463,4.09238975 41.6207654,4.55797604 41.6207654,5.13226383 C41.6207654,5.70655161 42.0818463,6.1721379 42.6508837,6.1721379 L43.7319586,6.1721379 C45.4176443,6.1721379 46.7890753,4.78771888 46.7890753,3.08606895 C46.7890753,1.38441902 45.4177817,0 43.7319586,0 L36.9754809,0 C36.616313,0 36.2829666,0.188979782 36.0958972,0.498584956 C35.908965,0.80819013 35.8952301,1.19391409 36.0597743,1.51627505 L37.8624815,5.04727145 L22.9954011,5.04727145 L21.4955487,2.07974815 L23.8674306,2.07974815 C24.436468,2.07974815 24.897549,1.61416186 24.897549,1.03987407 C24.897549,0.465586285 24.436468,0 23.8674306,0 L17.1108156,0 C16.5417782,0 16.0806972,0.465586285 16.0806972,1.03987407 C16.0806972,1.61416186 16.5417782,2.07974815 17.1108156,2.07974815 L19.1825896,2.07974815 L21.1845903,6.04069782 L18.8315253,9.72088149 C17.0304663,8.74132011 14.9718778,8.18464086 12.7866533,8.18464086 C5.73611114,8.18464086 0,13.974937 0,21.0922511 C0,28.2095652 5.73611114,34 12.7866533,34 C19.490389,34 25.0053681,28.7649966 25.5316899,22.1321252 L28.5543319,22.1321252 L27.3801343,25.9890874 L26.7041019,25.9890874 C26.1350645,25.9890874 25.6739836,26.4546737 25.6739836,27.0289615 C25.6739836,27.6032493 26.1350645,28.0688356 26.7041019,28.0688356 L30.4125281,28.0688356 C30.9815655,28.0688356 31.4426464,27.6032493 31.4426464,27.0289615 C31.4426464,26.4546737 30.9815655,25.9890874 30.4125281,25.9890874 L29.5354166,25.9890874 L30.890915,21.5364853 L39.462324,8.18075866 L40.4607147,10.1361379 C36.8406041,12.4180375 34.426556,16.4756262 34.426556,21.0922511 C34.426556,28.2095652 40.1626671,34 47.2133467,34 C54.2638889,34 60,28.2095652 60,21.0922511 C59.9998627,13.974937 54.2637515,8.18464086 47.2132093,8.18464086 Z M22.2671761,8.18256111 L28.2663108,20.052377 L25.5315525,20.052377 C25.2346037,16.3109101 23.3501739,13.0147866 20.560476,10.8517099 L22.2671761,8.18256111 Z M23.4625254,20.052377 L14.677676,20.052377 L19.4383337,12.6070173 C21.6646255,14.3893615 23.1769766,17.0420109 23.4625254,20.052377 Z M12.7866533,31.9202519 C6.87198833,31.9202519 2.06023674,27.0629307 2.06023674,21.0922511 C2.06023674,15.1217101 6.87198833,10.2642504 12.7866533,10.2642504 C14.5603798,10.2642504 16.2334294,10.7037705 17.7088336,11.4764662 L11.9210792,20.5282234 C11.7165664,20.8480887 11.7015953,21.2553034 11.882072,21.5895882 C12.0624114,21.9238731 12.4094927,22.1319865 12.7866533,22.1319865 L23.4625254,22.1319865 C22.942247,27.6165597 18.3536877,31.9202519 12.7866533,31.9202519 Z M30.0545963,19.0143054 L24.0465339,7.12688095 L37.6837903,7.12688095 L30.0545963,19.0143054 Z M47.2132093,31.9202519 C41.2985443,31.9202519 36.4866554,27.0627921 36.4866554,21.0922511 C36.4866554,17.2796568 38.4504731,13.9234979 41.408973,11.9936303 L46.2975028,21.5686521 C46.4804518,21.9267847 46.8405812,22.1322638 47.2140334,22.1322638 C47.3729463,22.1322638 47.5341942,22.094967 47.6851409,22.0164912 C48.1909977,21.7534724 48.3896045,21.126359 48.1289159,20.6157115 L43.2388753,11.0379167 C44.468974,10.5407182 45.8092267,10.2641117 47.2132093,10.2641117 C53.1278743,10.2641117 57.9396259,15.1215715 57.9396259,21.0921125 C57.9396259,27.0629307 53.1278743,31.9202519 47.2132093,31.9202519 Z"/>
</svg>
