<svg xmlns="http://www.w3.org/2000/svg" width="109" height="42" viewBox="0 0 109 42">
  <g fill-rule="evenodd" transform="translate(0 -3)">
    <path d="M63.134 4.074L66.704 4.074C67.6466714 4.074 68.3863307 4.32133086 68.923 4.816 69.4596693 5.31066914 69.728 5.9546627 69.728 6.748 69.728 7.25200252 69.592668 7.69766473 69.322 8.085 69.051332 8.47233527 68.7060021 8.7359993 68.286 8.876 68.7900025 8.99733394 69.207665 9.27033121 69.539 9.695 69.870335 10.1196688 70.036 10.6306637 70.036 11.228 70.036 12.0400041 69.7560028 12.7049974 69.196 13.223 68.6359972 13.7410026 67.8940046 14 66.97 14L63.134 14 63.134 4.074zM65.038 8.176L66.41 8.176C66.8486689 8.176 67.1939987 8.06400112 67.446 7.84 67.6980013 7.61599888 67.824 7.31266858 67.824 6.93 67.824 6.54733142 67.7003346 6.24633443 67.453 6.027 67.2056654 5.80766557 66.8533356 5.698 66.396 5.698L65.038 5.698 65.038 8.176zM65.038 12.39L66.606 12.39C67.072669 12.39 67.4389987 12.2756678 67.705 12.047 67.9710013 11.8183322 68.104 11.5033353 68.104 11.102 68.104 10.7006647 67.975668 10.3786679 67.719 10.136 67.4623321 9.89333212 67.100669 9.772 66.634 9.772L65.038 9.772 65.038 12.39zM72.892 9.772L75.972 9.772C75.9533332 9.38933142 75.815668 9.06733464 75.559 8.806 75.3023321 8.54466536 74.9266691 8.414 74.432 8.414 73.9839978 8.414 73.6200014 8.5539986 73.34 8.834 73.0599986 9.1140014 72.9106668 9.42666494 72.892 9.772zM76.154 11.564L77.708 12.026C77.5213324 12.6606698 77.1550027 13.1833313 76.609 13.594 76.0629973 14.0046687 75.3840041 14.21 74.572 14.21 73.5826617 14.21 72.7426701 13.8763367 72.052 13.209 71.3613299 12.5416633 71.016 11.6480056 71.016 10.528 71.016 9.46399468 71.3519966 8.59367005 72.024 7.917 72.6960034 7.24032995 73.4893288 6.902 74.404 6.902 75.4680053 6.902 76.300997 7.21933016 76.903 7.854 77.505003 8.48866984 77.806 9.36132778 77.806 10.472 77.806 10.546667 77.8036667 10.6306662 77.799 10.724 77.7943333 10.8173338 77.792 10.8919997 77.792 10.948L77.778 11.046 72.85 11.046C72.8686668 11.4940022 73.0459983 11.8673318 73.382 12.166 73.7180017 12.4646682 74.119331 12.614 74.586 12.614 75.3793373 12.614 75.9019987 12.2640035 76.154 11.564zM85.842 3.864L85.842 12.754C85.842 13.2113356 85.8606665 13.6266648 85.898 14L84.12 14C84.0733331 13.7666655 84.05 13.5006682 84.05 13.202 83.8913325 13.4913348 83.6416684 13.7246658 83.301 13.902 82.9603316 14.0793342 82.5660022 14.168 82.118 14.168 81.1379951 14.168 80.3330031 13.8250034 79.703 13.139 79.0729969 12.4529966 78.758 11.5873386 78.758 10.542 78.758 9.52466158 79.0683302 8.67067012 79.689 7.98 80.3096698 7.28932988 81.1006619 6.944 82.062 6.944 83.0513383 6.944 83.6999985 7.22866382 84.008 7.798L84.008 3.864 85.842 3.864zM80.634 10.542C80.634 11.1486697 80.7926651 11.6269982 81.11 11.977 81.4273349 12.3270018 81.8379975 12.502 82.342 12.502 82.8366691 12.502 83.2426651 12.3246684 83.56 11.97 83.8773349 11.6153316 84.036 11.1346697 84.036 10.528 84.036 9.93066368 83.8773349 9.46166837 83.56 9.121 83.2426651 8.78033163 82.8366691 8.61 82.342 8.61 81.8473309 8.61 81.4390016 8.78266494 81.117 9.128 80.7949984 9.47333506 80.634 9.94466368 80.634 10.542zM94.63 14L93.608 12.922C92.7866626 13.7620042 91.9000048 14.182 90.948 14.182 90.0239954 14.182 89.291336 13.9160027 88.75 13.384 88.208664 12.8519973 87.938 12.2313369 87.938 11.522 87.938 10.9433304 88.0756653 10.4533353 88.351 10.052 88.6263347 9.65066466 89.0533304 9.23533548 89.632 8.806L89.702 8.764 89.548 8.596C88.8199964 7.82132946 88.456 7.10266998 88.456 6.44 88.456 5.6466627 88.7313306 5.016669 89.282 4.55 89.8326694 4.083331 90.4719964 3.85 91.2 3.85 91.9933373 3.85 92.6513307 4.083331 93.174 4.55 93.6966693 5.016669 93.958 5.61866298 93.958 6.356 93.958 7.16800406 93.491338 7.9239965 92.558 8.624L92.18 8.904 93.678 10.486 96.184 7.868 96.184 10.192 94.798 11.648 97.038 14 94.63 14zM90.976 12.558C91.4613358 12.558 91.9653307 12.2826694 92.488 11.732L90.794 9.94 90.584 10.094C90.0519973 10.486002 89.786 10.9246642 89.786 11.41 89.786 11.7086682 89.8979989 11.9746655 90.122 12.208 90.3460011 12.4413345 90.6306649 12.558 90.976 12.558zM90.22 6.384C90.22 6.7106683 90.415998 7.06999804 90.808 7.462L91.074 7.756 91.564 7.392C91.9840021 7.08399846 92.194 6.73400196 92.194 6.342 92.194 6.07133198 92.0983343 5.84500091 91.907 5.663 91.7156657 5.48099909 91.4753348 5.39 91.186 5.39 90.9339987 5.39 90.710001 5.47633247 90.514 5.649 90.317999 5.82166753 90.22 6.06666508 90.22 6.384zM64.4360061 37.007C64.3340056 36.9049995 64.2830061 36.7790008 64.2830061 36.629 64.2830061 36.4789993 64.3340056 36.3530005 64.4360061 36.251 64.5380066 36.1489995 64.6640054 36.098 64.8140061 36.098 64.9640069 36.098 65.0900056 36.1489995 65.1920061 36.251 65.2940066 36.3530005 65.3450061 36.4789993 65.3450061 36.629 65.3450061 36.7790008 65.2940066 36.9049995 65.1920061 37.007 65.0900056 37.1090005 64.9640069 37.16 64.8140061 37.16 64.6640054 37.16 64.5380066 37.1090005 64.4360061 37.007zM67.2350061 37.007C67.1330056 36.9049995 67.0820061 36.7790008 67.0820061 36.629 67.0820061 36.4789993 67.1330056 36.3530005 67.2350061 36.251 67.3370066 36.1489995 67.4630054 36.098 67.6130061 36.098 67.7630069 36.098 67.8890056 36.1489995 67.9910061 36.251 68.0930066 36.3530005 68.1440061 36.4789993 68.1440061 36.629 68.1440061 36.7790008 68.0930066 36.9049995 67.9910061 37.007 67.8890056 37.1090005 67.7630069 37.16 67.6130061 37.16 67.4630054 37.16 67.3370066 37.1090005 67.2350061 37.007zM64.5800061 38.96C64.1300039 39.3980022 63.9050061 40.012996 63.9050061 40.805 63.9050061 41.597004 64.1300039 42.2149978 64.5800061 42.659 65.0300084 43.1030022 65.5730029 43.325 66.2090061 43.325 66.8450093 43.325 67.3880039 43.1030022 67.8380061 42.659 68.2880084 42.2149978 68.5130061 41.597004 68.5130061 40.805 68.5130061 40.012996 68.2880084 39.3965022 67.8380061 38.9555 67.3880039 38.5144978 66.8450093 38.294 66.2090061 38.294 65.5730029 38.294 65.0300084 38.5159978 64.5800061 38.96zM63.0050061 40.805C63.0050061 40.2889974 63.0965052 39.8180021 63.2795061 39.392 63.462507 38.9659979 63.7055046 38.6165014 64.0085061 38.3435 64.3115076 38.0704986 64.6520042 37.8590007 65.0300061 37.709 65.408008 37.5589992 65.8010041 37.484 66.2090061 37.484 66.6170081 37.484 67.0100042 37.5589992 67.3880061 37.709 67.766008 37.8590007 68.1065046 38.0704986 68.4095061 38.3435 68.7125076 38.6165014 68.9555052 38.9659979 69.1385061 39.392 69.321507 39.8180021 69.4130061 40.2889974 69.4130061 40.805 69.4130061 41.4890034 69.2555077 42.0889974 68.9405061 42.605 68.6255045 43.1210026 68.2280085 43.5049987 67.7480061 43.757 67.2680037 44.0090013 66.7550088 44.135 66.2090061 44.135 65.6630034 44.135 65.1500085 44.0090013 64.6700061 43.757 64.1900037 43.5049987 63.7925077 43.1210026 63.4775061 42.605 63.1625045 42.0889974 63.0050061 41.4890034 63.0050061 40.805zM73.3910061 44.135C72.5210018 44.135 71.7755092 43.835003 71.1545061 43.235 70.533503 42.634997 70.2230061 41.8250051 70.2230061 40.805 70.2230061 40.1209966 70.3790045 39.5210026 70.6910061 39.005 71.0030077 38.4889974 71.3960037 38.1065012 71.8700061 37.8575 72.3440085 37.6084988 72.8510034 37.484 73.3910061 37.484 74.1110097 37.484 74.7185036 37.6654982 75.2135061 38.0285 75.7085086 38.3915018 76.0370053 38.8849969 76.1990061 39.509L75.3800061 39.797C75.2600055 39.3169976 75.0290078 38.9465013 74.6870061 38.6855 74.3450044 38.4244987 73.9130087 38.294 73.3910061 38.294 72.767003 38.294 72.2330083 38.5144978 71.7890061 38.9555 71.3450039 39.3965022 71.1230061 40.012996 71.1230061 40.805 71.1230061 41.597004 71.3450039 42.2149978 71.7890061 42.659 72.2330083 43.1030022 72.767003 43.325 73.3910061 43.325 73.9130087 43.325 74.3480044 43.1855014 74.6960061 42.9065 75.0440078 42.6274986 75.2870054 42.2570023 75.4250061 41.795L76.2080061 42.083C76.0340052 42.7010031 75.6995086 43.1974981 75.2045061 43.5725 74.7095036 43.9475019 74.1050097 44.135 73.3910061 44.135zM81.3290061 44L79.1690061 41.102 78.2600061 42.074 78.2600061 44 77.3780061 44 77.3780061 37.619 78.2600061 37.619 78.2600061 40.904 81.2480061 37.619 82.4090061 37.619 79.7540061 40.463 82.4450061 44 81.3290061 44zM87.2690061 44L83.3900061 44 83.3900061 37.619 87.2690061 37.619 87.2690061 38.438 84.2720061 38.438 84.2720061 40.4 86.9900061 40.4 86.9900061 41.228 84.2720061 41.228 84.2720061 43.181 87.2690061 43.181 87.2690061 44zM91.9220061 44L90.4640061 41.39 89.5100061 41.39 89.5100061 44 88.6190061 44 88.6190061 37.619 91.0220061 37.619C91.610009 37.619 92.0825043 37.8004982 92.4395061 38.1635 92.7965079 38.5265018 92.9750061 38.9779973 92.9750061 39.518 92.9750061 39.9800023 92.8370075 40.3744984 92.5610061 40.7015 92.2850047 41.0285016 91.9070085 41.2369996 91.4270061 41.327L92.9480061 44 91.9220061 44zM89.5100061 40.598L90.8600061 40.598C91.2200079 40.598 91.511005 40.500501 91.7330061 40.3055 91.9550072 40.110499 92.0660061 39.8480017 92.0660061 39.518 92.0660061 39.1819983 91.9550072 38.913501 91.7330061 38.7125 91.511005 38.511499 91.2200079 38.411 90.8600061 38.411L89.5100061 38.411 89.5100061 40.598zM95.2160061 37.007C95.1140056 36.9049995 95.0630061 36.7790008 95.0630061 36.629 95.0630061 36.4789993 95.1140056 36.3530005 95.2160061 36.251 95.3180066 36.1489995 95.4440054 36.098 95.5940061 36.098 95.7440069 36.098 95.8700056 36.1489995 95.9720061 36.251 96.0740066 36.3530005 96.1250061 36.4789993 96.1250061 36.629 96.1250061 36.7790008 96.0740066 36.9049995 95.9720061 37.007 95.8700056 37.1090005 95.7440069 37.16 95.5940061 37.16 95.4440054 37.16 95.3180066 37.1090005 95.2160061 37.007zM98.0150061 37.007C97.9130056 36.9049995 97.8620061 36.7790008 97.8620061 36.629 97.8620061 36.4789993 97.9130056 36.3530005 98.0150061 36.251 98.1170066 36.1489995 98.2430054 36.098 98.3930061 36.098 98.5430069 36.098 98.6690056 36.1489995 98.7710061 36.251 98.8730066 36.3530005 98.9240061 36.4789993 98.9240061 36.629 98.9240061 36.7790008 98.8730066 36.9049995 98.7710061 37.007 98.6690056 37.1090005 98.5430069 37.16 98.3930061 37.16 98.2430054 37.16 98.1170066 37.1090005 98.0150061 37.007zM95.3600061 38.96C94.9100039 39.3980022 94.6850061 40.012996 94.6850061 40.805 94.6850061 41.597004 94.9100039 42.2149978 95.3600061 42.659 95.8100084 43.1030022 96.3530029 43.325 96.9890061 43.325 97.6250093 43.325 98.1680039 43.1030022 98.6180061 42.659 99.0680084 42.2149978 99.2930061 41.597004 99.2930061 40.805 99.2930061 40.012996 99.0680084 39.3965022 98.6180061 38.9555 98.1680039 38.5144978 97.6250093 38.294 96.9890061 38.294 96.3530029 38.294 95.8100084 38.5159978 95.3600061 38.96zM93.7850061 40.805C93.7850061 40.2889974 93.8765052 39.8180021 94.0595061 39.392 94.242507 38.9659979 94.4855046 38.6165014 94.7885061 38.3435 95.0915076 38.0704986 95.4320042 37.8590007 95.8100061 37.709 96.188008 37.5589992 96.5810041 37.484 96.9890061 37.484 97.3970081 37.484 97.7900042 37.5589992 98.1680061 37.709 98.546008 37.8590007 98.8865046 38.0704986 99.1895061 38.3435 99.4925076 38.6165014 99.7355052 38.9659979 99.9185061 39.392 100.101507 39.8180021 100.193006 40.2889974 100.193006 40.805 100.193006 41.4890034 100.035508 42.0889974 99.7205061 42.605 99.4055045 43.1210026 99.0080085 43.5049987 98.5280061 43.757 98.0480037 44.0090013 97.5350088 44.135 96.9890061 44.135 96.4430034 44.135 95.9300085 44.0090013 95.4500061 43.757 94.9700037 43.5049987 94.5725077 43.1210026 94.2575061 42.605 93.9425045 42.0889974 93.7850061 41.4890034 93.7850061 40.805z"/>
    <path fill-rule="nonzero" d="M43.2787752,7.87234931 C41.6803062,7.87234931 40.1558684,8.21348312 38.7661471,8.82987109 L35.4430539,2.00039369 L40.0876287,2.00039369 C40.591494,2.00039369 41.0014353,2.43461248 41.0014353,2.96831751 C41.0014353,3.50202255 40.591494,3.93624134 40.0876287,3.93624134 L39.0966434,3.93624134 C38.5750258,3.93624134 38.1523682,4.3840628 38.1523682,4.93643818 C38.1523682,5.48881356 38.5750258,5.93663502 39.0966434,5.93663502 L40.0876287,5.93663502 C41.6328406,5.93663502 42.8899856,4.60503963 42.8899856,2.96831751 C42.8899856,1.3315954 41.6329665,0 40.0876287,0 L33.8941908,0 C33.5649535,0 33.2593861,0.181769106 33.0879057,0.479561046 C32.9165513,0.777352986 32.9039609,1.14835934 33.0547931,1.45842036 L34.7072747,4.85468876 L21.0791177,4.85468876 L19.704253,2.00039369 L21.8784781,2.00039369 C22.4000957,2.00039369 22.8227533,1.55257222 22.8227533,1.00019684 C22.8227533,0.447821467 22.4000957,0 21.8784781,0 L15.6849143,0 C15.1632967,0 14.7406391,0.447821467 14.7406391,1.00019684 C14.7406391,1.55257222 15.1632967,2.00039369 15.6849143,2.00039369 L17.5840405,2.00039369 L19.4192078,5.81021014 L17.2622315,9.34997345 C15.6112608,8.40778802 13.7242213,7.87234931 11.7210989,7.87234931 C5.25810188,7.87234931 0,13.4417121 0,20.2874593 C0,27.1332066 5.25810188,32.7027027 11.7210989,32.7027027 C17.8661899,32.7027027 22.9215874,27.6674451 23.4040491,21.2876562 L26.1748042,21.2876562 L25.0984564,24.9974529 L24.4787601,24.9974529 C23.9571425,24.9974529 23.5344849,25.4452744 23.5344849,25.9976498 C23.5344849,26.5500252 23.9571425,26.9978466 24.4787601,26.9978466 L27.8781507,26.9978466 C28.3997683,26.9978466 28.8224259,26.5500252 28.8224259,25.9976498 C28.8224259,25.4452744 28.3997683,24.9974529 27.8781507,24.9974529 L27.0741319,24.9974529 L28.3166721,20.7147434 L36.173797,7.86861524 L37.0889885,9.74938539 C33.7705537,11.9442173 31.5576763,15.8469854 31.5576763,20.2874593 C31.5576763,27.1332066 36.8157782,32.7027027 43.2789011,32.7027027 C49.7418981,32.7027027 55,27.1332066 55,20.2874593 C54.9998741,13.4417121 49.7417722,7.87234931 43.2787752,7.87234931 Z M20.4115781,7.87034892 L25.9107849,19.2872625 L23.4039231,19.2872625 C23.1317201,15.6885542 21.404326,12.518197 18.847103,10.4376542 L20.4115781,7.87034892 Z M21.507315,19.2872625 L13.4545363,19.2872625 L17.8184725,12.1259864 C19.85924,13.8403238 21.2455619,16.3917593 21.507315,19.2872625 Z M11.7210989,30.702309 C6.29932264,30.702309 1.88855035,26.0303229 1.88855035,20.2874593 C1.88855035,14.5447291 6.29932264,9.87260964 11.7210989,9.87260964 C13.3470148,9.87260964 14.8806436,10.2953595 16.2330975,11.0385724 L10.9276559,19.7449526 C10.7401858,20.0526131 10.7264624,20.4442902 10.8918994,20.7658201 C11.0572105,21.0873501 11.3753683,21.2875228 11.7210989,21.2875228 L21.507315,21.2875228 C21.0303931,26.5628277 16.8242137,30.702309 11.7210989,30.702309 Z M27.5500466,18.2887993 L22.0426561,6.85494908 L34.5434744,6.85494908 L27.5500466,18.2887993 Z M43.2787752,30.702309 C37.856999,30.702309 33.4461008,26.0301895 33.4461008,20.2874593 C33.4461008,16.6203376 35.246267,13.3922357 37.9582253,11.5360037 L42.4393775,20.7456828 C42.6070808,21.0901506 42.9371994,21.2877895 43.2795306,21.2877895 C43.4252008,21.2877895 43.5730114,21.2519158 43.7113791,21.1764343 C44.1750812,20.9234512 44.3571375,20.3202658 44.1181729,19.8291025 L39.6356357,10.6167561 C40.7632261,10.1385286 41.9917911,9.87247628 43.2787752,9.87247628 C48.7005515,9.87247628 53.1113237,14.5445958 53.1113237,20.287326 C53.1113237,26.0303229 48.7005515,30.702309 43.2787752,30.702309 Z" transform="translate(0 6)"/>
    <path d="M63.1439969,16.984 L69.2639969,16.984 C70.880005,16.984 72.1479923,17.4079958 73.0679969,18.256 C73.9880015,19.1040042 74.4479969,20.2079932 74.4479969,21.568 C74.4479969,22.4320043 74.2159993,23.1959967 73.7519969,23.86 C73.2879946,24.5240033 72.6960005,24.9759988 71.9759969,25.216 C72.8400013,25.424001 73.5559941,25.8919964 74.1239969,26.62 C74.6919998,27.3480036 74.9759969,28.2239949 74.9759969,29.248 C74.9759969,30.640007 74.4960017,31.7799956 73.5359969,32.668 C72.5759921,33.5560044 71.3040049,34 69.7199969,34 L63.1439969,34 L63.1439969,16.984 Z M66.4079969,24.016 L68.7599969,24.016 C69.5120007,24.016 70.1039948,23.8240019 70.5359969,23.44 C70.9679991,23.0559981 71.1839969,22.5360033 71.1839969,21.88 C71.1839969,21.2239967 70.9719991,20.7080019 70.5479969,20.332 C70.1239948,19.9559981 69.5200009,19.768 68.7359969,19.768 L66.4079969,19.768 L66.4079969,24.016 Z M66.4079969,31.24 L69.0959969,31.24 C69.8960009,31.24 70.5239947,31.044002 70.9799969,30.652 C71.4359992,30.259998 71.6639969,29.7200034 71.6639969,29.032 C71.6639969,28.3439966 71.4439991,27.7920021 71.0039969,27.376 C70.5639947,26.9599979 69.9440009,26.752 69.1439969,26.752 L66.4079969,26.752 L66.4079969,31.24 Z M80.7359969,34 L77.5439969,34 L77.5439969,22.192 L80.7359969,22.192 L80.7359969,34 Z M77.1599969,18.328 C77.1599969,17.7839973 77.351995,17.316002 77.7359969,16.924 C78.1199989,16.531998 78.5839942,16.336 79.1279969,16.336 C79.6719997,16.336 80.135995,16.5279981 80.5199969,16.912 C80.9039989,17.2960019 81.0959969,17.7679972 81.0959969,18.328 C81.0959969,18.8560026 80.9039989,19.3119981 80.5199969,19.696 C80.135995,20.0800019 79.6719997,20.272 79.1279969,20.272 C78.5839942,20.272 78.1199989,20.0800019 77.7359969,19.696 C77.351995,19.3119981 77.1599969,18.8560026 77.1599969,18.328 Z M95.5919969,22.192 L90.8639969,27.16 L95.6879969,34 L91.7759969,34 L88.6559969,29.488 L87.3359969,30.88 L87.3359969,34 L84.1439969,34 L84.1439969,16.624 L87.3359969,16.624 L87.3359969,26.584 L91.4159969,22.192 L95.5919969,22.192 Z M99.8879969,26.752 L105.167997,26.752 C105.135997,26.0959967 104.899999,25.5440022 104.459997,25.096 C104.019995,24.6479978 103.376001,24.424 102.527997,24.424 C101.759993,24.424 101.135999,24.6639976 100.655997,25.144 C100.175995,25.6240024 99.9199971,26.159997 99.8879969,26.752 Z M105.479997,29.824 L108.143997,30.616 C107.823995,31.7040054 107.196002,32.5999965 106.259997,33.304 C105.323992,34.0080035 104.160004,34.36 102.767997,34.36 C101.071988,34.36 99.6320029,33.7880057 98.4479969,32.644 C97.263991,31.4999943 96.6719969,29.9680096 96.6719969,28.048 C96.6719969,26.2239909 97.2479912,24.7320058 98.3999969,23.572 C99.5520027,22.4119942 100.911989,21.832 102.479997,21.832 C104.304006,21.832 105.731992,22.3759946 106.763997,23.464 C107.796002,24.5520054 108.311997,26.0479905 108.311997,27.952 C108.311997,28.0800006 108.307997,28.2239992 108.299997,28.384 C108.291997,28.5440008 108.287997,28.6719995 108.287997,28.768 L108.263997,28.936 L99.8159969,28.936 C99.8479971,29.7040038 100.151994,30.3439974 100.727997,30.856 C101.304,31.3680026 101.991993,31.624 102.791997,31.624 C104.152004,31.624 105.047995,31.024006 105.479997,29.824 Z"/>
  </g>
</svg>
